<?xml version="1.0" encoding="utf-8"?>
<svg
    width="800px"
    height="800px"
    viewBox="0 0 16 16"
    version="1.1"
    xmlns="http://www.w3.org/2000/svg"
    xmlns:xlink="http://www.w3.org/1999/xlink"
    class="si-glyph si-glyph-dice-6"
>
  <title>Dice 6</title>
  <g fill="none" fill-rule="evenodd" stroke="none" stroke-width="1">
    <!-- Shifted x-coordinates by -1.043 -->
    <path
        class="si-glyph-fill"
        fill="#434343"
        d="M13.720,0 L2.135,0 C0.955,0 0.000,0.966 0.000,2.155 L0.000,13.845 C0.000,15.034 0.955,15.999 2.135,15.999 L13.720,15.999 C14.901,15.999 15.856,15.034 15.856,13.845 L15.856,2.155 C15.856,0.966 14.901,0 13.720,0 Z M2.959,7.153 C1.813,7.153 0.884,6.202 0.884,5.030 C0.884,3.858 1.813,2.907 2.959,2.907 C4.105,2.907 5.035,3.858 5.035,5.030 C5.035,6.202 4.105,7.153 2.959,7.153 Z M12.959,7.153 C11.813,7.153 10.884,6.202 10.884,5.030 C10.884,3.858 11.813,2.907 12.959,2.907 C14.105,2.907 15.035,3.858 15.035,5.030 C15.035,6.202 14.105,7.153 12.959,7.153 Z M7.959,13.153 C6.813,13.153 5.884,12.202 5.884,11.030 C5.884,9.858 6.813,8.907 7.959,8.907 C9.105,8.907 10.035,9.858 10.035,11.030 C10.035,12.202 9.105,13.153 7.959,13.153 Z M12.959,13.153 C11.813,13.153 10.884,12.202 10.884,11.030 C10.884,9.858 11.813,8.907 12.959,8.907 C14.105,8.907 15.035,9.858 15.035,11.030 C15.035,12.202 14.105,13.153 12.959,13.153 Z M7.959,7.153 C6.813,7.153 5.884,6.202 5.884,5.030 C5.884,3.858 6.813,2.907 7.959,2.907 C9.105,2.907 10.035,3.858 10.035,5.030 C10.035,6.202 9.105,7.153 7.959,7.153 Z M2.959,13.153 C1.813,13.153 0.884,12.202 0.884,11.030 C0.884,9.858 1.813,8.907 2.959,8.907 C4.105,8.907 5.035,9.858 5.035,11.030 C5.035,12.202 4.105,13.153 2.959,13.153 Z"
    />
  </g>
</svg>
