<?xml version="1.0" encoding="utf-8"?>
<svg
    width="800px"
    height="800px"
    viewBox="0 0 16 16"
    version="1.1"
    xmlns="http://www.w3.org/2000/svg"
    xmlns:xlink="http://www.w3.org/1999/xlink"
    class="si-glyph si-glyph-dice-2"
>
  <title>Dice 2</title>
  <g fill="none" fill-rule="evenodd" stroke="none" stroke-width="1">
    <!-- Shifted all x-coordinates by -1.043 from the original -->
    <path
        class="si-glyph-fill"
        fill="#434343"
        d="M13.720,0 L2.135,0 C0.955,0 0.000,0.966 0.000,2.155 L0.000,13.845 C0.000,15.034 0.955,15.999 2.135,15.999 L13.720,15.999 C14.901,15.999 15.856,15.034 15.856,13.845 L15.856,2.155 C15.856,0.966 14.901,0 13.720,0 Z M4.959,10.153 C3.813,10.153 2.884,9.202 2.884,8.030 C2.884,6.858 3.813,5.907 4.959,5.907 C6.105,5.907 7.035,6.858 7.035,8.030 C7.035,9.202 6.105,10.153 4.959,10.153 Z M10.959,10.153 C9.813,10.153 8.884,9.202 8.884,8.030 C8.884,6.858 9.813,5.907 10.959,5.907 C12.105,5.907 13.035,6.858 13.035,8.030 C13.035,9.202 12.105,10.153 10.959,10.153 Z"
    />
  </g>
</svg>
