<?xml version="1.0" encoding="utf-8"?>
<svg
    width="800px"
    height="800px"
    viewBox="0 0 16 16"
    version="1.1"
    xmlns="http://www.w3.org/2000/svg"
    xmlns:xlink="http://www.w3.org/1999/xlink"
    class="si-glyph si-glyph-dice-5"
>
  <title>Dice 5</title>
  <g fill="none" fill-rule="evenodd" stroke="none" stroke-width="1">
    <!-- Shifted x-coordinates by -1.043 -->
    <path
        class="si-glyph-fill"
        fill="#434343"
        d="M13.720,0 L2.135,0 C0.955,0 0.000,0.966 0.000,2.155 L0.000,13.845 C0.000,15.034 0.955,15.999 2.135,15.999 L13.720,15.999 C14.901,15.999 15.856,15.034 15.856,13.845 L15.856,2.155 C15.856,0.966 14.901,0 13.720,0 Z M3.959,6.153 C2.813,6.153 1.884,5.202 1.884,4.030 C1.884,2.858 2.813,1.907 3.959,1.907 C5.105,1.907 6.035,2.858 6.035,4.030 C6.035,5.202 5.105,6.153 3.959,6.153 Z M11.959,6.153 C10.813,6.153 9.884,5.202 9.884,4.030 C9.884,2.858 10.813,1.907 11.959,1.907 C13.105,1.907 14.035,2.858 14.035,4.030 C14.035,5.202 13.105,6.153 11.959,6.153 Z M11.959,14.153 C10.813,14.153 9.884,13.202 9.884,12.030 C9.884,10.858 10.813,9.907 11.959,9.907 C13.105,9.907 14.035,10.858 14.035,12.030 C14.035,13.202 13.105,14.153 11.959,14.153 Z M7.959,10.153 C6.813,10.153 5.884,9.202 5.884,8.030 C5.884,6.858 6.813,5.907 7.959,5.907 C9.105,5.907 10.035,6.858 10.035,8.030 C10.035,9.202 9.105,10.153 7.959,10.153 Z M3.959,14.153 C2.813,14.153 1.884,13.202 1.884,12.030 C1.884,10.858 2.813,9.907 3.959,9.907 C5.105,9.907 6.035,10.858 6.035,12.030 C6.035,13.202 5.105,14.153 3.959,14.153 Z"
    />
  </g>
</svg>
