<?xml version="1.0" encoding="utf-8"?>
<svg
    width="800px"
    height="800px"
    viewBox="0 0 16 16"
    version="1.1"
    xmlns="http://www.w3.org/2000/svg"
    xmlns:xlink="http://www.w3.org/1999/xlink"
    class="si-glyph si-glyph-dice-4"
>
  <title>Dice 4</title>
  <g fill="none" fill-rule="evenodd" stroke="none" stroke-width="1">
    <!-- Shifted x-coordinates by -1.043 -->
    <path
        class="si-glyph-fill"
        fill="#434343"
        d="M13.720,0 L2.135,0 C0.955,0 0.000,0.966 0.000,2.155 L0.000,13.845 C0.000,15.034 0.955,15.999 2.135,15.999 L13.720,15.999 C14.901,15.999 15.856,15.034 15.856,13.845 L15.856,2.155 C15.856,0.966 14.901,0 13.720,0 Z M4.959,7.153 C3.813,7.153 2.884,6.202 2.884,5.030 C2.884,3.858 3.813,2.907 4.959,2.907 C6.105,2.907 7.035,3.858 7.035,5.030 C7.035,6.202 6.105,7.153 4.959,7.153 Z M10.959,7.153 C9.813,7.153 8.884,6.202 8.884,5.030 C8.884,3.858 9.813,2.907 10.959,2.907 C12.105,2.907 13.035,3.858 13.035,5.030 C13.035,6.202 12.105,7.153 10.959,7.153 Z M10.959,13.153 C9.813,13.153 8.884,12.202 8.884,11.030 C8.884,9.858 9.813,8.907 10.959,8.907 C12.105,8.907 13.035,9.858 13.035,11.030 C13.035,12.202 12.105,13.153 10.959,13.153 Z M4.959,13.153 C3.813,13.153 2.884,12.202 2.884,11.030 C2.884,9.858 3.813,8.907 4.959,8.907 C6.105,8.907 7.035,9.858 7.035,11.030 C7.035,12.202 6.105,13.153 4.959,13.153 Z"
    />
  </g>
</svg>
